<svg xmlns="http://www.w3.org/2000/svg" viewBox="0 0 49.75 49.95"><path d="M47.1 21a19.8 19.8 0 0 0-5.45-2.24l-1.1-.28.6-1A19.9 19.9 0 0 0 43.42 12c.44-2 .12-3.63-1-4.7s-2.66-1.4-4.7-1a19.76 19.76 0 0 0-5.43 2.29l-.95.57-.27-1.1a20 20 0 0 0-2.23-5.47C27.74.9 26.4 0 24.88 0s-2.87.9-4 2.66a19.42 19.42 0 0 0-2.23 5.47l-.28 1.1-.94-.57A19.68 19.68 0 0 0 12 6.36c-2.05-.44-3.64-.12-4.7 1S5.9 10 6.33 12a20 20 0 0 0 2.28 5.45l.58 1-1.1.28A19.67 19.67 0 0 0 2.65 21C.9 22.1 0 23.46 0 25s.9 2.86 2.65 4a19.65 19.65 0 0 0 5.45 2.22l1.1.27-.58 1a20.09 20.09 0 0 0-2.28 5.45c-.43 2-.12 3.64 1 4.7a4.13 4.13 0 0 0 3.05 1.15 7.81 7.81 0 0 0 1.66-.2 19.92 19.92 0 0 0 5.44-2.28l.94-.57.28 1.08a19.42 19.42 0 0 0 2.23 5.47C22 49.05 23.36 50 24.88 50s2.86-.9 4-2.67a20.08 20.08 0 0 0 2.23-5.46l.27-1.1.95.57a20 20 0 0 0 5.43 2.28 7.9 7.9 0 0 0 1.67.2 4.13 4.13 0 0 0 3-1.15c1.07-1.07 1.4-2.66 1-4.7a20 20 0 0 0-2.27-5.45l-.6-1 1.1-.27A19.79 19.79 0 0 0 47.11 29c1.75-1.14 2.64-2.48 2.64-4s-.9-2.9-2.64-4zm-38 6.7a16.4 16.4 0 0 1-4.46-1.81c-.86-.56-1-.92-1-.92s.23-.45 1-.93a16.4 16.4 0 0 1 4.43-1.78l2.3-.55 2.5 3.25-2.5 3.25-2.3-.54zm6.5 10.44A16.45 16.45 0 0 1 11.21 40a4.41 4.41 0 0 1-.87.11 1.41 1.41 0 0 1-.44-.06 2.4 2.4 0 0 1 0-1.36 16.25 16.25 0 0 1 1.88-4.41l1.24-2q1.93.32 4.05.5l.5 4.1-2 1.24zm1.48-20.98q-2.12.2-4.05.5l-1.24-2a16.34 16.34 0 0 1-1.88-4.4 2.61 2.61 0 0 1 0-1.35 2.37 2.37 0 0 1 1.33 0 16.13 16.13 0 0 1 4.38 1.88l2 1.25-.54 4.1zm5.1-8.08A16.61 16.61 0 0 1 24 4.64a2.6 2.6 0 0 1 .89-1c.1 0 .45.24.92 1a16.58 16.58 0 0 1 1.78 4.45l.54 2.33C27 12.2 26 13 24.88 13.93l-3.23-2.5.55-2.33zm5.36 31.76a16.3 16.3 0 0 1-1.78 4.45 2.61 2.61 0 0 1-.89 1 2.48 2.48 0 0 1-.92-1 16.33 16.33 0 0 1-1.77-4.45l-.55-2.32L24.88 36l3.22 2.52-.54 2.32zm.52-10.4c.05 0 .08 0 .1.08s0 .1-.14.2l-.26.25a.29.29 0 0 1-.16.07.27.27 0 0 1-.19-.08l-.3-.27c-.1-.1-.12-.14-.1-.18a.12.12 0 0 1 .07-.07l.1-2.6-1.12-2.35a3.16 3.16 0 0 1 3 0l-1 2.44zm-1.82-1.6a.75.75 0 0 1 .2.33.7.7 0 0 1-.6-.38.61.61 0 0 1 0-.48zm3-.05a.7.7 0 0 1-.6.38.75.75 0 0 1 .2-.33l.42-.53a.66.66 0 0 1-.04.48zm1-2.5c0 .12 0 .3-.05.52a.62.62 0 0 1-.15-.2.76.76 0 0 1 0-.55l.1-.47a.91.91 0 0 1 .11.16 1 1 0 0 1-.03.54zm.18-.57l-.28-.37a.13.13 0 0 0-.1-.08c-.05 0-.06.06-.13.13a.44.44 0 0 1-.22.1.33.33 0 0 1-.22-.08 2.62 2.62 0 0 0-.47-.26l-.2-.08-.33-.1a3.91 3.91 0 0 0-.87-.05 4.93 4.93 0 0 0-.94.11 2.74 2.74 0 0 0-.55.17 2 2 0 0 0-.46.31c-.2 0-.4-.3-.5-.26-.13.23-.34.4-.4.65a.82.82 0 0 0 0 .33 9.79 9.79 0 0 1 .14 1c0 .6-.2.73-.07 1.08a1 1 0 0 0 .4.47 3.42 3.42 0 0 1 1.05 2 2.9 2.9 0 0 1-1.31 0 3.06 3.06 0 0 1-1.6-.94 3.57 3.57 0 0 1-.83-1.45 1.6 1.6 0 0 1 0-1 1.67 1.67 0 0 1 .08-.2c0 .13.05.66.16.72a.11.11 0 0 0 .08 0v-.08a1.14 1.14 0 0 0 0-.32v-.1a5.38 5.38 0 0 1 .92-3.59c0 .16-.06.37 0 .4s.16-.16.2-.22a2.82 2.82 0 0 0 .38-1.77 2.38 2.38 0 0 0-1.57-1.94 2.17 2.17 0 0 0-1.53.14c.15-.25.3-.52.25-.56s-.76.47-1.18 1a4.3 4.3 0 0 0-.79 2.55c-.1-.25-.15-.48-.2-.66a1.15 1.15 0 0 1 0-.63.42.42 0 0 1 0-.1c0 .1.05.2.1.2s.06-.14.06-.18a10.21 10.21 0 0 1 .63-1.86 3.11 3.11 0 0 1 1.34-1.24c1.44-.78 3-.33 3.08-.5s-.14-.15-.77-.33a2.16 2.16 0 0 1 1.1.05 2.39 2.39 0 0 1 .85.53 4.73 4.73 0 0 1 1.56 2.45 4.59 4.59 0 0 1 0 2 2.54 2.54 0 0 0 .53-.8A2.64 2.64 0 0 0 28 20.9a2.78 2.78 0 0 1 .34.77 3.58 3.58 0 0 1-.45 2.75c-.05.07-.2.26-.15.37s.16.1.32.1a4 4 0 0 1 .76.14 3.19 3.19 0 0 1 .67.34.29.29 0 0 0 .16.07.22.22 0 0 0 .14 0 .36.36 0 0 0 .16-.14.1.1 0 0 1 .09 0 .16.16 0 0 1 .09 0l.3.4a.22.22 0 0 0-.01.03zm-5.33.9a.62.62 0 0 1-.15.2 4.57 4.57 0 0 0-.05-.52 1 1 0 0 1 0-.54.57.57 0 0 1 .11-.16l.1.47a.76.76 0 0 1-.02.55zm9.06-14.8A16.26 16.26 0 0 1 38.54 10a4.49 4.49 0 0 1 .87-.11 1.78 1.78 0 0 1 .44.05 2.34 2.34 0 0 1 0 1.37A16.58 16.58 0 0 1 38 15.66l-1.25 2-4-.5-.52-4.1a22.55 22.55 0 0 1 1.93-1.23zM39.87 40a2.3 2.3 0 0 1-1.33 0 16.59 16.59 0 0 1-4.38-1.88l-2-1.26.52-4.1 4-.5 1.24 2a16.25 16.25 0 0 1 1.88 4.41 2.42 2.42 0 0 1 .07 1.33zm5.23-14.1a16.31 16.31 0 0 1-4.42 1.78l-2.3.54-2.5-3.25 2.5-3.25 2.3.55a16.31 16.31 0 0 1 4.42 1.78c.86.56 1 .9 1 .9s-.26.46-1 .94z" fill="#fff"/></svg>